<svg version="1.2" xmlns="http://www.w3.org/2000/svg" viewBox="0 0 1428 863" width="1428" height="863"><style>tspan{white-space:pre}.a{fill:none;stroke:#000;stroke-miterlimit:100}</style><path fill-rule="evenodd" class="a" d="m715.3 52l-30.3 17.5-30.2-17.5v-34.9l30.2-17.5 30.3 17.5z"/><path fill-rule="evenodd" class="a" d="m779.3 52l-30.3 17.5-30.2-17.5v-34.9l30.2-17.5 30.3 17.5z"/><path fill-rule="evenodd" class="a" d="m843.3 52l-30.3 17.5-30.2-17.5v-34.9l30.2-17.5 30.3 17.5z"/><path fill-rule="evenodd" class="a" d="m907.3 52l-30.3 17.5-30.2-17.5v-34.9l30.2-17.5 30.3 17.5z"/><path fill-rule="evenodd" class="a" d="m971.3 52l-30.3 17.5-30.2-17.5v-34.9l30.2-17.5 30.3 17.5z"/><path fill-rule="evenodd" class="a" d="m1035.3 52l-30.3 17.5-30.2-17.5v-34.9l30.2-17.5 30.3 17.5z"/><path fill-rule="evenodd" class="a" d="m491.3 107l-30.3 17.5-30.2-17.5v-34.9l30.2-17.5 30.3 17.5z"/><path fill-rule="evenodd" class="a" d="m683.3 107l-30.3 17.5-30.2-17.5v-34.9l30.2-17.5 30.3 17.5z"/><path fill-rule="evenodd" class="a" d="m747.3 107l-30.3 17.5-30.2-17.5v-34.9l30.2-17.5 30.3 17.5z"/><path fill-rule="evenodd" class="a" d="m811.3 107l-30.3 17.5-30.2-17.5v-34.9l30.2-17.5 30.3 17.5z"/><path fill-rule="evenodd" class="a" d="m875.3 107l-30.3 17.5-30.2-17.5v-34.9l30.2-17.5 30.3 17.5z"/><path fill-rule="evenodd" class="a" d="m939.3 107l-30.3 17.5-30.2-17.5v-34.9l30.2-17.5 30.3 17.5z"/><path fill-rule="evenodd" class="a" d="m1003.3 107l-30.3 17.5-30.2-17.5v-34.9l30.2-17.5 30.3 17.5z"/><path fill-rule="evenodd" class="a" d="m1067.3 107l-30.3 17.5-30.2-17.5v-34.9l30.2-17.5 30.3 17.5z"/><path fill-rule="evenodd" class="a" d="m1131.3 107l-30.3 17.5-30.2-17.5v-34.9l30.2-17.5 30.3 17.5z"/><path fill-rule="evenodd" class="a" d="m395.3 162l-30.3 17.5-30.2-17.5v-34.9l30.2-17.5 30.3 17.5z"/><path fill-rule="evenodd" class="a" d="m459.3 162l-30.3 17.5-30.2-17.5v-34.9l30.2-17.5 30.3 17.5z"/><path fill-rule="evenodd" class="a" d="m523.3 162l-30.3 17.5-30.2-17.5v-34.9l30.2-17.5 30.3 17.5z"/><path fill-rule="evenodd" class="a" d="m587.3 162l-30.3 17.5-30.2-17.5v-34.9l30.2-17.5 30.3 17.5z"/><path fill-rule="evenodd" class="a" d="m651.3 162l-30.3 17.5-30.2-17.5v-34.9l30.2-17.5 30.3 17.5z"/><path fill-rule="evenodd" class="a" d="m715.3 162l-30.3 17.5-30.2-17.5v-34.9l30.2-17.5 30.3 17.5z"/><path fill-rule="evenodd" class="a" d="m779.3 162l-30.3 17.5-30.2-17.5v-34.9l30.2-17.5 30.3 17.5z"/><path fill-rule="evenodd" class="a" d="m843.3 162l-30.3 17.5-30.2-17.5v-34.9l30.2-17.5 30.3 17.5z"/><path fill-rule="evenodd" class="a" d="m907.3 162l-30.3 17.5-30.2-17.5v-34.9l30.2-17.5 30.3 17.5z"/><path fill-rule="evenodd" class="a" d="m971.3 162l-30.3 17.5-30.2-17.5v-34.9l30.2-17.5 30.3 17.5z"/><path fill-rule="evenodd" class="a" d="m1035.3 162l-30.3 17.5-30.2-17.5v-34.9l30.2-17.5 30.3 17.5z"/><path fill-rule="evenodd" class="a" d="m1099.3 162l-30.3 17.5-30.2-17.5v-34.9l30.2-17.5 30.3 17.5z"/><path fill-rule="evenodd" class="a" d="m1163.3 162l-30.3 17.5-30.2-17.5v-34.9l30.2-17.5 30.3 17.5z"/><path fill-rule="evenodd" class="a" d="m299.3 217l-30.3 17.5-30.2-17.5v-34.9l30.2-17.5 30.3 17.5z"/><path fill-rule="evenodd" class="a" d="m363.3 217l-30.3 17.5-30.2-17.5v-34.9l30.2-17.5 30.3 17.5z"/><path fill-rule="evenodd" class="a" d="m427.3 217l-30.3 17.5-30.2-17.5v-34.9l30.2-17.5 30.3 17.5z"/><path fill-rule="evenodd" class="a" d="m491.3 217l-30.3 17.5-30.2-17.5v-34.9l30.2-17.5 30.3 17.5z"/><path fill-rule="evenodd" class="a" d="m555.3 217l-30.3 17.5-30.2-17.5v-34.9l30.2-17.5 30.3 17.5z"/><path fill-rule="evenodd" class="a" d="m619.3 217l-30.3 17.5-30.2-17.5v-34.9l30.2-17.5 30.3 17.5z"/><path fill-rule="evenodd" class="a" d="m683.3 217l-30.3 17.5-30.2-17.5v-34.9l30.2-17.5 30.3 17.5z"/><path fill-rule="evenodd" class="a" d="m747.3 217l-30.3 17.5-30.2-17.5v-34.9l30.2-17.5 30.3 17.5z"/><path fill-rule="evenodd" class="a" d="m811.3 217l-30.3 17.5-30.2-17.5v-34.9l30.2-17.5 30.3 17.5z"/><path fill-rule="evenodd" class="a" d="m875.3 217l-30.3 17.5-30.2-17.5v-34.9l30.2-17.5 30.3 17.5z"/><path fill-rule="evenodd" class="a" d="m939.3 217l-30.3 17.5-30.2-17.5v-34.9l30.2-17.5 30.3 17.5z"/><path fill-rule="evenodd" class="a" d="m1003.3 217l-30.3 17.5-30.2-17.5v-34.9l30.2-17.5 30.3 17.5z"/><path fill-rule="evenodd" class="a" d="m1067.3 217l-30.3 17.5-30.2-17.5v-34.9l30.2-17.5 30.3 17.5z"/><path fill-rule="evenodd" class="a" d="m1131.3 217l-30.3 17.5-30.2-17.5v-34.9l30.2-17.5 30.3 17.5z"/><path fill-rule="evenodd" class="a" d="m1195.3 217l-30.3 17.5-30.2-17.5v-34.9l30.2-17.5 30.3 17.5z"/><path fill-rule="evenodd" class="a" d="m1259.3 217l-30.3 17.5-30.2-17.5v-34.9l30.2-17.5 30.3 17.5z"/><path fill-rule="evenodd" class="a" d="m1323.3 217l-30.3 17.5-30.2-17.5v-34.9l30.2-17.5 30.3 17.5z"/><path fill-rule="evenodd" class="a" d="m1387.3 217l-30.3 17.5-30.2-17.5v-34.9l30.2-17.5 30.3 17.5z"/><path fill-rule="evenodd" class="a" d="m267.3 272l-30.3 17.5-30.2-17.5v-34.9l30.2-17.5 30.3 17.5z"/><path fill-rule="evenodd" class="a" d="m331.3 272l-30.3 17.5-30.2-17.5v-34.9l30.2-17.5 30.3 17.5z"/><path fill-rule="evenodd" class="a" d="m395.3 272l-30.3 17.5-30.2-17.5v-34.9l30.2-17.5 30.3 17.5z"/><path fill-rule="evenodd" class="a" d="m459.3 272l-30.3 17.5-30.2-17.5v-34.9l30.2-17.5 30.3 17.5z"/><path fill-rule="evenodd" class="a" d="m523.3 272l-30.3 17.5-30.2-17.5v-34.9l30.2-17.5 30.3 17.5z"/><path fill-rule="evenodd" class="a" d="m587.3 272l-30.3 17.5-30.2-17.5v-34.9l30.2-17.5 30.3 17.5z"/><path fill-rule="evenodd" class="a" d="m651.3 272l-30.3 17.5-30.2-17.5v-34.9l30.2-17.5 30.3 17.5z"/><path fill-rule="evenodd" class="a" d="m715.3 272l-30.3 17.5-30.2-17.5v-34.9l30.2-17.5 30.3 17.5z"/><path fill-rule="evenodd" class="a" d="m779.3 272l-30.3 17.5-30.2-17.5v-34.9l30.2-17.5 30.3 17.5z"/><path fill-rule="evenodd" class="a" d="m843.3 272l-30.3 17.5-30.2-17.5v-34.9l30.2-17.5 30.3 17.5z"/><path fill-rule="evenodd" class="a" d="m907.3 272l-30.3 17.5-30.2-17.5v-34.9l30.2-17.5 30.3 17.5z"/><path fill-rule="evenodd" class="a" d="m971.3 272l-30.3 17.5-30.2-17.5v-34.9l30.2-17.5 30.3 17.5z"/><path fill-rule="evenodd" class="a" d="m1035.3 272l-30.3 17.5-30.2-17.5v-34.9l30.2-17.5 30.3 17.5z"/><path fill-rule="evenodd" class="a" d="m1099.3 272l-30.3 17.5-30.2-17.5v-34.9l30.2-17.5 30.3 17.5z"/><path fill-rule="evenodd" class="a" d="m1163.3 272l-30.3 17.5-30.2-17.5v-34.9l30.2-17.5 30.3 17.5z"/><path fill-rule="evenodd" class="a" d="m1227.3 272l-30.3 17.5-30.2-17.5v-34.9l30.2-17.5 30.3 17.5z"/><path fill-rule="evenodd" class="a" d="m1291.3 272l-30.3 17.5-30.2-17.5v-34.9l30.2-17.5 30.3 17.5z"/><path fill-rule="evenodd" class="a" d="m1355.3 272l-30.3 17.5-30.2-17.5v-34.9l30.2-17.5 30.3 17.5z"/><path fill-rule="evenodd" class="a" d="m235.3 327l-30.3 17.5-30.2-17.5v-34.9l30.2-17.5 30.3 17.5z"/><path fill-rule="evenodd" class="a" d="m299.3 327l-30.3 17.5-30.2-17.5v-34.9l30.2-17.5 30.3 17.5z"/><path fill-rule="evenodd" class="a" d="m363.3 327l-30.3 17.5-30.2-17.5v-34.9l30.2-17.5 30.3 17.5z"/><path fill-rule="evenodd" class="a" d="m427.3 327l-30.3 17.5-30.2-17.5v-34.9l30.2-17.5 30.3 17.5z"/><path fill-rule="evenodd" class="a" d="m491.3 327l-30.3 17.5-30.2-17.5v-34.9l30.2-17.5 30.3 17.5z"/><path fill-rule="evenodd" class="a" d="m555.3 327l-30.3 17.5-30.2-17.5v-34.9l30.2-17.5 30.3 17.5z"/><path fill-rule="evenodd" class="a" d="m619.3 327l-30.3 17.5-30.2-17.5v-34.9l30.2-17.5 30.3 17.5z"/><path fill-rule="evenodd" class="a" d="m683.3 327l-30.3 17.5-30.2-17.5v-34.9l30.2-17.5 30.3 17.5z"/><path fill-rule="evenodd" class="a" d="m747.3 327l-30.3 17.5-30.2-17.5v-34.9l30.2-17.5 30.3 17.5z"/><path fill-rule="evenodd" class="a" d="m811.3 327l-30.3 17.5-30.2-17.5v-34.9l30.2-17.5 30.3 17.5z"/><path fill-rule="evenodd" class="a" d="m875.3 327l-30.3 17.5-30.2-17.5v-34.9l30.2-17.5 30.3 17.5z"/><path fill-rule="evenodd" class="a" d="m939.3 327l-30.3 17.5-30.2-17.5v-34.9l30.2-17.5 30.3 17.5z"/><path fill-rule="evenodd" class="a" d="m1003.3 327l-30.3 17.5-30.2-17.5v-34.9l30.2-17.5 30.3 17.5z"/><path fill-rule="evenodd" class="a" d="m1067.3 327l-30.3 17.5-30.2-17.5v-34.9l30.2-17.5 30.3 17.5z"/><path fill-rule="evenodd" class="a" d="m1131.3 327l-30.3 17.5-30.2-17.5v-34.9l30.2-17.5 30.3 17.5z"/><path fill-rule="evenodd" class="a" d="m1195.3 327l-30.3 17.5-30.2-17.5v-34.9l30.2-17.5 30.3 17.5z"/><path fill-rule="evenodd" class="a" d="m1259.3 327l-30.3 17.5-30.2-17.5v-34.9l30.2-17.5 30.3 17.5z"/><path fill-rule="evenodd" class="a" d="m1323.3 327l-30.3 17.5-30.2-17.5v-34.9l30.2-17.5 30.3 17.5z"/><path fill-rule="evenodd" class="a" d="m1387.3 327l-30.3 17.5-30.2-17.5v-34.9l30.2-17.5 30.3 17.5z"/><path fill-rule="evenodd" class="a" d="m267.3 382l-30.3 17.5-30.2-17.5v-34.9l30.2-17.5 30.3 17.5z"/><path fill-rule="evenodd" class="a" d="m331.3 382l-30.3 17.5-30.2-17.5v-34.9l30.2-17.5 30.3 17.5z"/><path fill-rule="evenodd" class="a" d="m395.3 382l-30.3 17.5-30.2-17.5v-34.9l30.2-17.5 30.3 17.5z"/><path fill-rule="evenodd" class="a" d="m459.3 382l-30.3 17.5-30.2-17.5v-34.9l30.2-17.5 30.3 17.5z"/><path fill-rule="evenodd" class="a" d="m523.3 382l-30.3 17.5-30.2-17.5v-34.9l30.2-17.5 30.3 17.5z"/><path fill-rule="evenodd" class="a" d="m587.3 382l-30.3 17.5-30.2-17.5v-34.9l30.2-17.5 30.3 17.5z"/><path fill-rule="evenodd" class="a" d="m651.3 382l-30.3 17.5-30.2-17.5v-34.9l30.2-17.5 30.3 17.5z"/><path fill-rule="evenodd" class="a" d="m715.3 382l-30.3 17.5-30.2-17.5v-34.9l30.2-17.5 30.3 17.5z"/><path fill-rule="evenodd" class="a" d="m779.3 382l-30.3 17.5-30.2-17.5v-34.9l30.2-17.5 30.3 17.5z"/><path fill-rule="evenodd" class="a" d="m843.3 382l-30.3 17.5-30.2-17.5v-34.9l30.2-17.5 30.3 17.5z"/><path fill-rule="evenodd" class="a" d="m907.3 382l-30.3 17.5-30.2-17.5v-34.9l30.2-17.5 30.3 17.5z"/><path fill-rule="evenodd" class="a" d="m971.3 382l-30.3 17.5-30.2-17.5v-34.9l30.2-17.5 30.3 17.5z"/><path fill-rule="evenodd" class="a" d="m1035.3 382l-30.3 17.5-30.2-17.5v-34.9l30.2-17.5 30.3 17.5z"/><path fill-rule="evenodd" class="a" d="m1099.3 382l-30.3 17.5-30.2-17.5v-34.9l30.2-17.5 30.3 17.5z"/><path fill-rule="evenodd" class="a" d="m1163.3 382l-30.3 17.5-30.2-17.5v-34.9l30.2-17.5 30.3 17.5z"/><path fill-rule="evenodd" class="a" d="m1227.3 382l-30.3 17.5-30.2-17.5v-34.9l30.2-17.5 30.3 17.5z"/><path fill-rule="evenodd" class="a" d="m1291.3 382l-30.3 17.5-30.2-17.5v-34.9l30.2-17.5 30.3 17.5z"/><path fill-rule="evenodd" class="a" d="m1355.3 382l-30.3 17.5-30.2-17.5v-34.9l30.2-17.5 30.3 17.5z"/><path fill-rule="evenodd" class="a" d="m299.3 437l-30.3 17.5-30.2-17.5v-34.9l30.2-17.5 30.3 17.5z"/><path fill-rule="evenodd" class="a" d="m363.3 437l-30.3 17.5-30.2-17.5v-34.9l30.2-17.5 30.3 17.5z"/><path fill-rule="evenodd" class="a" d="m427.3 437l-30.3 17.5-30.2-17.5v-34.9l30.2-17.5 30.3 17.5z"/><path fill-rule="evenodd" class="a" d="m491.3 437l-30.3 17.5-30.2-17.5v-34.9l30.2-17.5 30.3 17.5z"/><path fill-rule="evenodd" class="a" d="m555.3 437l-30.3 17.5-30.2-17.5v-34.9l30.2-17.5 30.3 17.5z"/><path fill-rule="evenodd" class="a" d="m619.3 437l-30.3 17.5-30.2-17.5v-34.9l30.2-17.5 30.3 17.5z"/><path fill-rule="evenodd" class="a" d="m683.3 437l-30.3 17.5-30.2-17.5v-34.9l30.2-17.5 30.3 17.5z"/><path fill-rule="evenodd" class="a" d="m747.3 437l-30.3 17.5-30.2-17.5v-34.9l30.2-17.5 30.3 17.5z"/><path fill-rule="evenodd" class="a" d="m811.3 437l-30.3 17.5-30.2-17.5v-34.9l30.2-17.5 30.3 17.5z"/><path fill-rule="evenodd" class="a" d="m875.3 437l-30.3 17.5-30.2-17.5v-34.9l30.2-17.5 30.3 17.5z"/><path fill-rule="evenodd" class="a" d="m939.3 437l-30.3 17.5-30.2-17.5v-34.9l30.2-17.5 30.3 17.5z"/><path fill-rule="evenodd" class="a" d="m1003.3 437l-30.3 17.5-30.2-17.5v-34.9l30.2-17.5 30.3 17.5z"/><path fill-rule="evenodd" class="a" d="m1067.3 437l-30.3 17.5-30.2-17.5v-34.9l30.2-17.5 30.3 17.5z"/><path fill-rule="evenodd" class="a" d="m1131.3 437l-30.3 17.5-30.2-17.5v-34.9l30.2-17.5 30.3 17.5z"/><path fill-rule="evenodd" class="a" d="m1195.3 437l-30.3 17.5-30.2-17.5v-34.9l30.2-17.5 30.3 17.5z"/><path fill-rule="evenodd" class="a" d="m1259.3 437l-30.3 17.5-30.2-17.5v-34.9l30.2-17.5 30.3 17.5z"/><path fill-rule="evenodd" class="a" d="m1323.3 437l-30.3 17.5-30.2-17.5v-34.9l30.2-17.5 30.3 17.5z"/><path fill-rule="evenodd" class="a" d="m1387.3 437l-30.3 17.5-30.2-17.5v-34.9l30.2-17.5 30.3 17.5z"/><path fill-rule="evenodd" class="a" d="m267.3 492l-30.3 17.5-30.2-17.5v-34.9l30.2-17.5 30.3 17.5z"/><path fill-rule="evenodd" class="a" d="m331.3 492l-30.3 17.5-30.2-17.5v-34.9l30.2-17.5 30.3 17.5z"/><path fill-rule="evenodd" class="a" d="m395.3 492l-30.3 17.5-30.2-17.5v-34.9l30.2-17.5 30.3 17.5z"/><path fill-rule="evenodd" class="a" d="m459.3 492l-30.3 17.5-30.2-17.5v-34.9l30.2-17.5 30.3 17.5z"/><path fill-rule="evenodd" class="a" d="m523.3 492l-30.3 17.5-30.2-17.5v-34.9l30.2-17.5 30.3 17.5z"/><path fill-rule="evenodd" class="a" d="m587.3 492l-30.3 17.5-30.2-17.5v-34.9l30.2-17.5 30.3 17.5z"/><path fill-rule="evenodd" class="a" d="m651.3 492l-30.3 17.5-30.2-17.5v-34.9l30.2-17.5 30.3 17.5z"/><path fill-rule="evenodd" class="a" d="m715.3 492l-30.3 17.5-30.2-17.5v-34.9l30.2-17.5 30.3 17.5z"/><path fill-rule="evenodd" class="a" d="m779.3 492l-30.3 17.5-30.2-17.5v-34.9l30.2-17.5 30.3 17.5z"/><path fill-rule="evenodd" class="a" d="m843.3 492l-30.3 17.5-30.2-17.5v-34.9l30.2-17.5 30.3 17.5z"/><path fill-rule="evenodd" class="a" d="m907.3 492l-30.3 17.5-30.2-17.5v-34.9l30.2-17.5 30.3 17.5z"/><path fill-rule="evenodd" class="a" d="m971.3 492l-30.3 17.5-30.2-17.5v-34.9l30.2-17.5 30.3 17.5z"/><path fill-rule="evenodd" class="a" d="m1035.3 492l-30.3 17.5-30.2-17.5v-34.9l30.2-17.5 30.3 17.5z"/><path fill-rule="evenodd" class="a" d="m1099.3 492l-30.3 17.5-30.2-17.5v-34.9l30.2-17.5 30.3 17.5z"/><path fill-rule="evenodd" class="a" d="m1163.3 492l-30.3 17.5-30.2-17.5v-34.9l30.2-17.5 30.3 17.5z"/><path fill-rule="evenodd" class="a" d="m1227.3 492l-30.3 17.5-30.2-17.5v-34.9l30.2-17.5 30.3 17.5z"/><path fill-rule="evenodd" class="a" d="m1291.3 492l-30.3 17.5-30.2-17.5v-34.9l30.2-17.5 30.3 17.5z"/><path fill-rule="evenodd" class="a" d="m1355.3 492l-30.3 17.5-30.2-17.5v-34.9l30.2-17.5 30.3 17.5z"/><path fill-rule="evenodd" class="a" d="m235.3 547l-30.3 17.5-30.2-17.5v-34.9l30.2-17.5 30.3 17.5z"/><path fill-rule="evenodd" class="a" d="m299.3 547l-30.3 17.5-30.2-17.5v-34.9l30.2-17.5 30.3 17.5z"/><path fill-rule="evenodd" class="a" d="m363.3 547l-30.3 17.5-30.2-17.5v-34.9l30.2-17.5 30.3 17.5z"/><path fill-rule="evenodd" class="a" d="m427.3 547l-30.3 17.5-30.2-17.5v-34.9l30.2-17.5 30.3 17.5z"/><path fill-rule="evenodd" class="a" d="m491.3 547l-30.3 17.5-30.2-17.5v-34.9l30.2-17.5 30.3 17.5z"/><path fill-rule="evenodd" class="a" d="m555.3 547l-30.3 17.5-30.2-17.5v-34.9l30.2-17.5 30.3 17.5z"/><path fill-rule="evenodd" class="a" d="m619.3 547l-30.3 17.5-30.2-17.5v-34.9l30.2-17.5 30.3 17.5z"/><path fill-rule="evenodd" class="a" d="m683.3 547l-30.3 17.5-30.2-17.5v-34.9l30.2-17.5 30.3 17.5z"/><path fill-rule="evenodd" class="a" d="m747.3 547l-30.3 17.5-30.2-17.5v-34.9l30.2-17.5 30.3 17.5z"/><path fill-rule="evenodd" class="a" d="m811.3 547l-30.3 17.5-30.2-17.5v-34.9l30.2-17.5 30.3 17.5z"/><path fill-rule="evenodd" class="a" d="m875.3 547l-30.3 17.5-30.2-17.5v-34.9l30.2-17.5 30.3 17.5z"/><path fill-rule="evenodd" class="a" d="m939.3 547l-30.3 17.5-30.2-17.5v-34.9l30.2-17.5 30.3 17.5z"/><path fill-rule="evenodd" class="a" d="m1003.3 547l-30.3 17.5-30.2-17.5v-34.9l30.2-17.5 30.3 17.5z"/><path fill-rule="evenodd" class="a" d="m1067.3 547l-30.3 17.5-30.2-17.5v-34.9l30.2-17.5 30.3 17.5z"/><path fill-rule="evenodd" class="a" d="m1131.3 547l-30.3 17.5-30.2-17.5v-34.9l30.2-17.5 30.3 17.5z"/><path fill-rule="evenodd" class="a" d="m1195.3 547l-30.3 17.5-30.2-17.5v-34.9l30.2-17.5 30.3 17.5z"/><path fill-rule="evenodd" class="a" d="m1259.3 547l-30.3 17.5-30.2-17.5v-34.9l30.2-17.5 30.3 17.5z"/><path fill-rule="evenodd" class="a" d="m1323.3 547l-30.3 17.5-30.2-17.5v-34.9l30.2-17.5 30.3 17.5z"/><path fill-rule="evenodd" class="a" d="m1387.3 547l-30.3 17.5-30.2-17.5v-34.9l30.2-17.5 30.3 17.5z"/><path fill-rule="evenodd" class="a" d="m203.3 602l-30.3 17.5-30.2-17.5v-34.9l30.2-17.5 30.3 17.5z"/><path fill-rule="evenodd" class="a" d="m267.3 602l-30.3 17.5-30.2-17.5v-34.9l30.2-17.5 30.3 17.5z"/><path fill-rule="evenodd" class="a" d="m331.3 602l-30.3 17.5-30.2-17.5v-34.9l30.2-17.5 30.3 17.5z"/><path fill-rule="evenodd" class="a" d="m395.3 602l-30.3 17.5-30.2-17.5v-34.9l30.2-17.5 30.3 17.5z"/><path fill-rule="evenodd" class="a" d="m459.3 602l-30.3 17.5-30.2-17.5v-34.9l30.2-17.5 30.3 17.5z"/><path fill-rule="evenodd" class="a" d="m523.3 602l-30.3 17.5-30.2-17.5v-34.9l30.2-17.5 30.3 17.5z"/><path fill-rule="evenodd" class="a" d="m587.3 602l-30.3 17.5-30.2-17.5v-34.9l30.2-17.5 30.3 17.5z"/><path fill-rule="evenodd" class="a" d="m779.3 602l-30.3 17.5-30.2-17.5v-34.9l30.2-17.5 30.3 17.5z"/><path fill-rule="evenodd" class="a" d="m843.3 602l-30.3 17.5-30.2-17.5v-34.9l30.2-17.5 30.3 17.5z"/><path fill-rule="evenodd" class="a" d="m907.3 602l-30.3 17.5-30.2-17.5v-34.9l30.2-17.5 30.3 17.5z"/><path fill-rule="evenodd" class="a" d="m971.3 602l-30.3 17.5-30.2-17.5v-34.9l30.2-17.5 30.3 17.5z"/><path fill-rule="evenodd" class="a" d="m1035.3 602l-30.3 17.5-30.2-17.5v-34.9l30.2-17.5 30.3 17.5z"/><path fill-rule="evenodd" class="a" d="m1099.3 602l-30.3 17.5-30.2-17.5v-34.9l30.2-17.5 30.3 17.5z"/><path fill-rule="evenodd" class="a" d="m1163.3 602l-30.3 17.5-30.2-17.5v-34.9l30.2-17.5 30.3 17.5z"/><path fill-rule="evenodd" class="a" d="m1227.3 602l-30.3 17.5-30.2-17.5v-34.9l30.2-17.5 30.3 17.5z"/><path fill-rule="evenodd" class="a" d="m1291.3 602l-30.3 17.5-30.2-17.5v-34.9l30.2-17.5 30.3 17.5z"/><path fill-rule="evenodd" class="a" d="m1355.3 602l-30.3 17.5-30.2-17.5v-34.9l30.2-17.5 30.3 17.5z"/><path fill-rule="evenodd" class="a" d="m235.3 657l-30.3 17.5-30.2-17.5v-34.9l30.2-17.5 30.3 17.5z"/><path fill-rule="evenodd" class="a" d="m363.3 657l-30.3 17.5-30.2-17.5v-34.9l30.2-17.5 30.3 17.5z"/><path fill-rule="evenodd" class="a" d="m427.3 657l-30.3 17.5-30.2-17.5v-34.9l30.2-17.5 30.3 17.5z"/><path fill-rule="evenodd" class="a" d="m491.3 657l-30.3 17.5-30.2-17.5v-34.9l30.2-17.5 30.3 17.5z"/><path fill-rule="evenodd" class="a" d="m555.3 657l-30.3 17.5-30.2-17.5v-34.9l30.2-17.5 30.3 17.5z"/><path fill-rule="evenodd" class="a" d="m811.3 657l-30.3 17.5-30.2-17.5v-34.9l30.2-17.5 30.3 17.5z"/><path fill-rule="evenodd" class="a" d="m875.3 657l-30.3 17.5-30.2-17.5v-34.9l30.2-17.5 30.3 17.5z"/><path fill-rule="evenodd" class="a" d="m939.3 657l-30.3 17.5-30.2-17.5v-34.9l30.2-17.5 30.3 17.5z"/><path fill-rule="evenodd" class="a" d="m1003.3 657l-30.3 17.5-30.2-17.5v-34.9l30.2-17.5 30.3 17.5z"/><path fill-rule="evenodd" class="a" d="m1067.3 657l-30.3 17.5-30.2-17.5v-34.9l30.2-17.5 30.3 17.5z"/><path fill-rule="evenodd" class="a" d="m1131.3 657l-30.3 17.5-30.2-17.5v-34.9l30.2-17.5 30.3 17.5z"/><path fill-rule="evenodd" class="a" d="m1195.3 657l-30.3 17.5-30.2-17.5v-34.9l30.2-17.5 30.3 17.5z"/><path fill-rule="evenodd" class="a" d="m1259.3 657l-30.3 17.5-30.2-17.5v-34.9l30.2-17.5 30.3 17.5z"/><path fill-rule="evenodd" class="a" d="m1323.3 657l-30.3 17.5-30.2-17.5v-34.9l30.2-17.5 30.3 17.5z"/><path fill-rule="evenodd" class="a" d="m1387.3 657l-30.3 17.5-30.2-17.5v-34.9l30.2-17.5 30.3 17.5z"/><path fill-rule="evenodd" class="a" d="m203.3 712l-30.3 17.5-30.2-17.5v-34.9l30.2-17.5 30.3 17.5z"/><path fill-rule="evenodd" class="a" d="m459.3 712l-30.3 17.5-30.2-17.5v-34.9l30.2-17.5 30.3 17.5z"/><path fill-rule="evenodd" class="a" d="m523.3 712l-30.3 17.5-30.2-17.5v-34.9l30.2-17.5 30.3 17.5z"/><path fill-rule="evenodd" class="a" d="m587.3 712l-30.3 17.5-30.2-17.5v-34.9l30.2-17.5 30.3 17.5z"/><path fill-rule="evenodd" class="a" d="m651.3 712l-30.3 17.5-30.2-17.5v-34.9l30.2-17.5 30.3 17.5z"/><path fill-rule="evenodd" class="a" d="m715.3 712l-30.3 17.5-30.2-17.5v-34.9l30.2-17.5 30.3 17.5z"/><path fill-rule="evenodd" class="a" d="m779.3 712l-30.3 17.5-30.2-17.5v-34.9l30.2-17.5 30.3 17.5z"/><path fill-rule="evenodd" class="a" d="m843.3 712l-30.3 17.5-30.2-17.5v-34.9l30.2-17.5 30.3 17.5z"/><path fill-rule="evenodd" class="a" d="m907.3 712l-30.3 17.5-30.2-17.5v-34.9l30.2-17.5 30.3 17.5z"/><path fill-rule="evenodd" class="a" d="m971.3 712l-30.3 17.5-30.2-17.5v-34.9l30.2-17.5 30.3 17.5z"/><path fill-rule="evenodd" class="a" d="m1035.3 712l-30.3 17.5-30.2-17.5v-34.9l30.2-17.5 30.3 17.5z"/><path fill-rule="evenodd" class="a" d="m1099.3 712l-30.3 17.5-30.2-17.5v-34.9l30.2-17.5 30.3 17.5z"/><path fill-rule="evenodd" class="a" d="m1163.3 712l-30.3 17.5-30.2-17.5v-34.9l30.2-17.5 30.3 17.5z"/><path fill-rule="evenodd" class="a" d="m1227.3 712l-30.3 17.5-30.2-17.5v-34.9l30.2-17.5 30.3 17.5z"/><path fill-rule="evenodd" class="a" d="m1291.3 712l-30.3 17.5-30.2-17.5v-34.9l30.2-17.5 30.3 17.5z"/><path fill-rule="evenodd" class="a" d="m1355.3 712l-30.3 17.5-30.2-17.5v-34.9l30.2-17.5 30.3 17.5z"/><path fill-rule="evenodd" class="a" d="m363.3 767l-30.3 17.5-30.2-17.5v-34.9l30.2-17.5 30.3 17.5z"/><path fill-rule="evenodd" class="a" d="m427.3 767l-30.3 17.5-30.2-17.5v-34.9l30.2-17.5 30.3 17.5z"/><path fill-rule="evenodd" class="a" d="m491.3 767l-30.3 17.5-30.2-17.5v-34.9l30.2-17.5 30.3 17.5z"/><path fill-rule="evenodd" class="a" d="m555.3 767l-30.3 17.5-30.2-17.5v-34.9l30.2-17.5 30.3 17.5z"/><path fill-rule="evenodd" class="a" d="m619.3 767l-30.3 17.5-30.2-17.5v-34.9l30.2-17.5 30.3 17.5z"/><path fill-rule="evenodd" class="a" d="m683.3 767l-30.3 17.5-30.2-17.5v-34.9l30.2-17.5 30.3 17.5z"/><path fill-rule="evenodd" class="a" d="m747.3 767l-30.3 17.5-30.2-17.5v-34.9l30.2-17.5 30.3 17.5z"/><path fill-rule="evenodd" class="a" d="m811.3 767l-30.3 17.5-30.2-17.5v-34.9l30.2-17.5 30.3 17.5z"/><path fill-rule="evenodd" class="a" d="m875.3 767l-30.3 17.5-30.2-17.5v-34.9l30.2-17.5 30.3 17.5z"/><path fill-rule="evenodd" class="a" d="m939.3 767l-30.3 17.5-30.2-17.5v-34.9l30.2-17.5 30.3 17.5z"/><path fill-rule="evenodd" class="a" d="m1003.3 767l-30.3 17.5-30.2-17.5v-34.9l30.2-17.5 30.3 17.5z"/><path fill-rule="evenodd" class="a" d="m1067.3 767l-30.3 17.5-30.2-17.5v-34.9l30.2-17.5 30.3 17.5z"/><path fill-rule="evenodd" class="a" d="m1131.3 767l-30.3 17.5-30.2-17.5v-34.9l30.2-17.5 30.3 17.5z"/><path fill-rule="evenodd" class="a" d="m1259.3 767l-30.3 17.5-30.2-17.5v-34.9l30.2-17.5 30.3 17.5z"/><path fill-rule="evenodd" class="a" d="m1323.3 767l-30.3 17.5-30.2-17.5v-34.9l30.2-17.5 30.3 17.5z"/><path fill-rule="evenodd" class="a" d="m1387.3 767l-30.3 17.5-30.2-17.5v-34.9l30.2-17.5 30.3 17.5z"/><path fill-rule="evenodd" class="a" d="m267.3 822l-30.3 17.5-30.2-17.5v-34.9l30.2-17.5 30.3 17.5z"/><path fill-rule="evenodd" class="a" d="m331.3 822l-30.3 17.5-30.2-17.5v-34.9l30.2-17.5 30.3 17.5z"/><path fill-rule="evenodd" class="a" d="m395.3 822l-30.3 17.5-30.2-17.5v-34.9l30.2-17.5 30.3 17.5z"/><path fill-rule="evenodd" class="a" d="m459.3 822l-30.3 17.5-30.2-17.5v-34.9l30.2-17.5 30.3 17.5z"/><path fill-rule="evenodd" class="a" d="m523.3 822l-30.3 17.5-30.2-17.5v-34.9l30.2-17.5 30.3 17.5z"/><path fill-rule="evenodd" class="a" d="m587.3 822l-30.3 17.5-30.2-17.5v-34.9l30.2-17.5 30.3 17.5z"/><path fill-rule="evenodd" class="a" d="m651.3 822l-30.3 17.5-30.2-17.5v-34.9l30.2-17.5 30.3 17.5z"/><path fill-rule="evenodd" class="a" d="m715.3 822l-30.3 17.5-30.2-17.5v-34.9l30.2-17.5 30.3 17.5z"/><path fill-rule="evenodd" class="a" d="m779.3 822l-30.3 17.5-30.2-17.5v-34.9l30.2-17.5 30.3 17.5z"/><path fill-rule="evenodd" class="a" d="m843.3 822l-30.3 17.5-30.2-17.5v-34.9l30.2-17.5 30.3 17.5z"/><path fill-rule="evenodd" class="a" d="m907.3 822l-30.3 17.5-30.2-17.5v-34.9l30.2-17.5 30.3 17.5z"/><path fill-rule="evenodd" class="a" d="m971.3 822l-30.3 17.5-30.2-17.5v-34.9l30.2-17.5 30.3 17.5z"/><path fill-rule="evenodd" class="a" d="m1035.3 822l-30.3 17.5-30.2-17.5v-34.9l30.2-17.5 30.3 17.5z"/><path fill-rule="evenodd" class="a" d="m1099.3 822l-30.3 17.5-30.2-17.5v-34.9l30.2-17.5 30.3 17.5z"/><path fill-rule="evenodd" class="a" d="m1291.3 822l-30.3 17.5-30.2-17.5v-34.9l30.2-17.5 30.3 17.5z"/><path fill-rule="evenodd" class="a" d="m1355.3 822l-30.3 17.5-30.2-17.5v-34.9l30.2-17.5 30.3 17.5z"/></svg>
